<?xml version="1.0" encoding="iso-8859-1"?>
<!-- Generator: Adobe Illustrator 19.0.0, SVG Export Plug-In . SVG Version: 6.00 Build 0)  -->
<svg version="1.1" id="Capa_1" xmlns="http://www.w3.org/2000/svg" xmlns:xlink="http://www.w3.org/1999/xlink" x="0px" y="0px"
	 viewBox="0 0 452.305 452.305" style="enable-background:new 0 0 452.305 452.305;" xml:space="preserve">
<path style="fill:#00ACEA;" d="M398.031,177.385c-0.041,35.311-28.659,63.925-63.97,63.96h-27.67v-5.45l-64.61-61.09h-77.43
	c-7.5,0-13.58,6.08-13.58,13.58l0,0v52.96h-32.67c-35.311,0.018-63.952-28.593-63.969-63.905
	c-0.009-16.984,6.741-33.274,18.759-45.275c5.44-5.397,11.791-9.791,18.76-12.98c9.62-31.27,38.48-54.35,72.63-54.35
	c5.165-0.019,10.319,0.463,15.39,1.44c15.39-33.19,48.57-56.27,87.53-56.27c53.114-0.015,96.185,43.03,96.2,96.144
	c0,0.015,0,0.031,0,0.046c-0.081,4.663-0.401,9.32-0.96,13.95C384.211,130.919,398,153.095,398.031,177.385L398.031,177.385z"/>
<path style="fill:#00EFD1;" d="M306.391,241.345v120.19c0.001,7.502-6.078,13.585-13.58,13.59h-128.46
	c-7.502-0.005-13.581-6.088-13.58-13.59v-173.15c0-7.5,6.08-13.58,13.58-13.58l0,0h77.08v54.11c0.001,4.501,3.649,8.149,8.15,8.15
	h56.81V241.345z"/>
<path style="fill:#00CEB4;" d="M306.391,235.895v1.17h-56.81c-4.501-0.001-8.149-3.649-8.15-8.15v-54.11h0.35L306.391,235.895z"/>
<g>
	<path style="fill:#083863;" d="M334.061,251.155c40.753,0.099,73.87-32.858,73.969-73.611
		c0.062-25.644-13.194-49.482-35.012-62.958c0.225-2.709,0.383-5.438,0.383-8.4C373.417,47.556,325.9,0.015,267.271,0
		c-20.664-0.005-40.881,6.02-58.17,17.338c-14.615,9.619-26.66,22.661-35.09,37.992c-3.233-0.332-6.48-0.499-9.73-0.5
		c-18.655-0.028-36.793,6.126-51.579,17.5c-13.31,10.211-23.441,23.998-29.211,39.75c-6.502,3.441-12.458,7.826-17.674,13.014
		c-28.863,28.778-28.932,75.506-0.154,104.369c13.89,13.93,32.766,21.739,52.438,21.692h22.98v110.38
		c-0.136,12.908,10.218,23.483,23.126,23.619c0.048,0,0.096,0.001,0.144,0.001h128.46c12.909-0.057,23.328-10.568,23.271-23.477
		c0-0.048-0.001-0.096-0.001-0.143v-110.38H334.061z M118.101,231.155c-29.733,0.074-53.896-23.969-53.97-53.702
		c-0.036-14.355,5.663-28.13,15.831-38.264c4.62-4.558,10.005-8.269,15.909-10.962l4.031-1.864l1.307-4.244
		c8.566-27.843,34.5-47.287,63.072-47.287c4.507-0.018,9.006,0.4,13.433,1.248l7.718,1.542l3.311-7.141
		c14.438-31.135,44.501-50.476,78.458-50.476c47.582,0.051,86.143,38.608,86.2,86.19c-0.062,3.928-0.326,7.849-0.789,11.75
		l-0.806,8.063l6.163,3.082c26.656,13.127,37.624,45.377,24.497,72.033c-9.077,18.432-27.859,30.085-48.405,30.032h-18.78
		c-0.517-0.984-1.201-1.871-2.022-2.621l-64.61-60.868c-1.879-1.692-4.34-2.592-6.868-2.511h-77.43
		c-12.727-0.124-23.146,10.093-23.27,22.82c-0.001,0.137-0.001,0.273,0,0.41v42.77H118.101z M251.081,197.692l31.416,29.463h-31.416
		V197.692z M292.811,365.155h-128.46c-1.857-0.046-3.325-1.59-3.279-3.447c0.001-0.058,0.004-0.115,0.009-0.173v-173.15
		c-0.106-1.679,1.168-3.126,2.847-3.233c0.141-0.009,0.282-0.008,0.423,0.003h66.73v43.76c0.169,10.104,8.394,18.214,18.5,18.24
		h46.5v114.38c0.142,1.852-1.245,3.469-3.097,3.611C292.927,365.15,292.869,365.153,292.811,365.155z"/>
	<path style="fill:#083863;" d="M102.135,407.274l-11.054,11.219V299.615c0-5.523-4.477-10-10-10s-10,4.477-10,10v118.218
		l-10.724-10.559c-3.927-3.917-10.287-3.909-14.204,0.018c-3.886,3.896-3.914,10.194-0.062,14.124l27.94,27.96
		c3.894,3.901,10.213,3.906,14.114,0.012c0.004-0.004,0.008-0.008,0.012-0.012l27.958-27.96c3.928-3.883,3.964-10.214,0.081-14.142
		c0,0,0,0,0,0c-3.849-3.883-10.118-3.91-14.001-0.06C102.175,407.233,102.155,407.254,102.135,407.274L102.135,407.274z"/>
	<path style="fill:#083863;" d="M392.135,407.274l-11.054,11.219V299.615c0-5.523-4.477-10-10-10s-10,4.477-10,10v118.218
		l-10.724-10.559c-3.928-3.917-10.287-3.909-14.204,0.019c-3.886,3.896-3.913,10.193-0.062,14.123l27.94,27.96
		c3.894,3.901,10.213,3.906,14.114,0.012c0.004-0.004,0.008-0.008,0.012-0.012l27.958-27.96c3.928-3.883,3.964-10.214,0.081-14.142
		c0,0,0,0,0,0c-3.849-3.883-10.118-3.91-14.001-0.06C392.175,407.233,392.155,407.254,392.135,407.274L392.135,407.274z"/>
	<path style="fill:#083863;" d="M272.541,297.155h-90.63c-5.523,0-10,4.477-10,10s4.477,10,10,10h90.63c5.523,0,10-4.477,10-10
		S278.064,297.155,272.541,297.155z"/>
	<path style="fill:#083863;" d="M181.911,285.155h51.38c5.523,0,10-4.477,10-10s-4.477-10-10-10h-51.38c-5.523,0-10,4.477-10,10
		S176.388,285.155,181.911,285.155L181.911,285.155z"/>
	<path style="fill:#083863;" d="M272.541,330.155h-90.63c-5.523,0-10,4.477-10,10s4.477,10,10,10h90.63c5.523,0,10-4.477,10-10
		S278.064,330.155,272.541,330.155z"/>
</g>
<g>
</g>
<g>
</g>
<g>
</g>
<g>
</g>
<g>
</g>
<g>
</g>
<g>
</g>
<g>
</g>
<g>
</g>
<g>
</g>
<g>
</g>
<g>
</g>
<g>
</g>
<g>
</g>
<g>
</g>
</svg>
